<svg class="svg-icon" style="width: 1em;height: 1em;vertical-align: middle;fill: currentColor;overflow: hidden;" viewBox="0 0 1024 1024" version="1.1" xmlns="http://www.w3.org/2000/svg"><path d="M810.295652 277.147826L594.365217 742.4c-18.921739 47.86087-52.313043 75.686957-89.043478 75.686957-30.052174 0-55.652174-15.582609-70.121739-40.069566-15.582609-28.93913-14.469565-64.556522 4.452174-94.608695l282.713043-453.008696c14.469565-22.26087 43.408696-30.052174 66.782609-17.808696s32.278261 40.069565 21.147826 64.556522zM885.982609 411.826087c-16.695652-17.808696-44.521739-18.921739-63.443479-2.226087-17.808696 16.695652-18.921739 44.521739-2.226087 63.443478C893.773913 553.182609 934.956522 657.808696 934.956522 768c0 24.486957 20.034783 44.521739 44.521739 44.521739s44.521739-20.034783 44.521739-44.521739c0-132.452174-48.973913-259.33913-138.017391-356.173913z m-338.365218-73.46087c24.486957 2.226087 45.634783-15.582609 47.86087-40.069565 2.226087-24.486957-15.582609-45.634783-40.069565-47.860869-14.469565-1.113043-28.93913-2.226087-43.408696-2.226087-282.713043 0-512 233.73913-512 520.904347 0 24.486957 20.034783 44.521739 44.521739 44.52174s44.521739-20.034783 44.521739-44.52174c0-238.191304 189.217391-431.86087 422.956522-431.860869 12.243478-1.113043 24.486957 0 35.617391 1.113043z"  /></svg>